<svg xmlns="http://www.w3.org/2000/svg" xmlns:xlink="http://www.w3.org/1999/xlink" width="500" zoomAndPan="magnify" viewBox="0 0 375 374.999991" height="500" preserveAspectRatio="xMidYMid meet" version="1.0"><defs><g/><clipPath id="9d739ad566"><path d="M 22.609375 173.035156 L 352.390625 173.035156 L 352.390625 206.972656 L 22.609375 206.972656 Z M 22.609375 173.035156 " clip-rule="nonzero"/></clipPath></defs><g fill="#201e1d" fill-opacity="1"><g transform="translate(100.568161, 235.092875)"><g><path d="M 82.953125 1.140625 L 15.90625 -89.0625 L 15.90625 -20.59375 C 15.90625 -15.664062 16.257812 -11.898438 16.96875 -9.296875 C 17.6875 -6.691406 18.679688 -4.84375 19.953125 -3.75 C 21.234375 -2.664062 22.726562 -1.9375 24.4375 -1.5625 L 24.4375 0 L 8.09375 0 L 8.09375 -1.5625 C 9.414062 -1.9375 10.503906 -2.570312 11.359375 -3.46875 C 12.210938 -4.375 12.828125 -5.9375 13.203125 -8.15625 C 13.585938 -10.382812 13.78125 -13.679688 13.78125 -18.046875 L 13.78125 -81.390625 C 13.78125 -85.742188 13.519531 -89.035156 13 -91.265625 C 12.476562 -93.492188 11.671875 -95.078125 10.578125 -96.015625 C 9.492188 -96.960938 8.097656 -97.582031 6.390625 -97.875 L 6.390625 -99.4375 L 18.1875 -99.4375 L 82.671875 -12.921875 L 82.671875 -78.84375 C 82.671875 -83.757812 82.316406 -87.519531 81.609375 -90.125 C 80.898438 -92.726562 79.925781 -94.570312 78.6875 -95.65625 C 77.457031 -96.75 75.945312 -97.488281 74.15625 -97.875 L 74.15625 -99.4375 L 90.484375 -99.4375 L 90.484375 -97.875 C 89.160156 -97.582031 88.070312 -96.960938 87.21875 -96.015625 C 86.363281 -95.078125 85.742188 -93.492188 85.359375 -91.265625 C 84.984375 -89.035156 84.796875 -85.742188 84.796875 -81.390625 L 84.796875 1.140625 Z M 82.953125 1.140625 "/></g></g></g><g fill="#201e1d" fill-opacity="1"><g transform="translate(197.01531, 235.092875)"><g><path d="M 7.8125 0 L 7.8125 -1.5625 C 9.132812 -1.9375 10.222656 -2.570312 11.078125 -3.46875 C 11.929688 -4.375 12.546875 -5.9375 12.921875 -8.15625 C 13.304688 -10.382812 13.5 -13.679688 13.5 -18.046875 L 13.5 -81.390625 C 13.5 -85.742188 13.304688 -89.035156 12.921875 -91.265625 C 12.546875 -93.492188 11.929688 -95.078125 11.078125 -96.015625 C 10.222656 -96.960938 9.132812 -97.582031 7.8125 -97.875 L 7.8125 -99.4375 L 35.515625 -99.4375 C 44.316406 -99.4375 51.507812 -98.203125 57.09375 -95.734375 C 62.6875 -93.273438 66.804688 -89.890625 69.453125 -85.578125 C 72.109375 -81.273438 73.4375 -76.425781 73.4375 -71.03125 C 73.4375 -60.988281 69.976562 -53.265625 63.0625 -47.859375 C 56.15625 -42.460938 46.828125 -39.765625 35.078125 -39.765625 L 21.453125 -39.765625 L 21.453125 -18.046875 C 21.453125 -13.679688 21.640625 -10.382812 22.015625 -8.15625 C 22.390625 -5.9375 23.003906 -4.375 23.859375 -3.46875 C 24.710938 -2.570312 25.800781 -1.9375 27.125 -1.5625 L 27.125 0 Z M 21.453125 -41.765625 L 35.078125 -41.765625 C 44.078125 -41.765625 51.25 -43.960938 56.59375 -48.359375 C 61.945312 -52.765625 64.625 -59.375 64.625 -68.1875 C 64.625 -77.46875 61.617188 -84.660156 55.609375 -89.765625 C 49.597656 -94.878906 40.769531 -97.4375 29.125 -97.4375 C 27.882812 -97.4375 26.625 -97.410156 25.34375 -97.359375 C 24.070312 -97.316406 22.773438 -97.25 21.453125 -97.15625 Z M 21.453125 -41.765625 "/></g></g></g><g clip-path="url(#9d739ad566)"><path fill="#ffffff" d="M 22.609375 173.035156 L 352.457031 173.035156 L 352.457031 206.972656 L 22.609375 206.972656 Z M 22.609375 173.035156 " fill-opacity="1" fill-rule="nonzero"/></g><g fill="#201e1d" fill-opacity="1"><g transform="translate(73.606882, 195.628845)"><g><path d="M 19.46875 -5.546875 C 19.59375 -5.441406 19.65625 -5.304688 19.65625 -5.140625 C 19.664062 -4.984375 19.613281 -4.84375 19.5 -4.71875 C 19.46875 -4.675781 19.300781 -4.507812 19 -4.21875 C 18.707031 -3.925781 18.304688 -3.578125 17.796875 -3.171875 C 17.296875 -2.765625 16.710938 -2.359375 16.046875 -1.953125 C 15.378906 -1.546875 14.65625 -1.195312 13.875 -0.90625 C 13.101562 -0.625 12.304688 -0.460938 11.484375 -0.421875 C 10.660156 -0.378906 9.832031 -0.53125 9 -0.875 C 7.84375 -1.445312 6.945312 -2.300781 6.3125 -3.4375 C 6.21875 -3.550781 6.085938 -3.734375 5.921875 -3.984375 C 5.765625 -4.234375 5.546875 -4.351562 5.265625 -4.34375 C 5.128906 -4.34375 4.929688 -4.300781 4.671875 -4.21875 C 4.410156 -4.132812 4.070312 -3.96875 3.65625 -3.71875 C 3.25 -3.476562 2.765625 -3.097656 2.203125 -2.578125 C 1.640625 -2.066406 0.976562 -1.367188 0.21875 -0.484375 C 0.03125 -0.265625 -0.203125 -0.222656 -0.484375 -0.359375 C -0.753906 -0.492188 -0.851562 -0.707031 -0.78125 -1 L 0.328125 -5.90625 C 0.359375 -6.050781 0.441406 -6.164062 0.578125 -6.25 C 0.722656 -6.34375 0.875 -6.367188 1.03125 -6.328125 C 1.1875 -6.296875 1.304688 -6.207031 1.390625 -6.0625 C 1.472656 -5.925781 1.5 -5.785156 1.46875 -5.640625 L 0.953125 -3.4375 C 0.941406 -3.351562 0.972656 -3.289062 1.046875 -3.25 C 1.117188 -3.21875 1.1875 -3.234375 1.25 -3.296875 C 2.894531 -4.859375 4.285156 -5.601562 5.421875 -5.53125 C 5.890625 -5.5 6.289062 -5.304688 6.625 -4.953125 C 6.875 -4.679688 7.09375 -4.390625 7.28125 -4.078125 C 7.789062 -3.160156 8.503906 -2.453125 9.421875 -1.953125 C 10.140625 -1.660156 10.859375 -1.539062 11.578125 -1.59375 C 12.304688 -1.65625 13.015625 -1.820312 13.703125 -2.09375 C 14.390625 -2.363281 15.03125 -2.6875 15.625 -3.0625 C 16.21875 -3.4375 16.738281 -3.8125 17.1875 -4.1875 C 17.644531 -4.5625 18 -4.875 18.25 -5.125 C 18.5 -5.375 18.632812 -5.507812 18.65625 -5.53125 C 18.757812 -5.644531 18.890625 -5.703125 19.046875 -5.703125 C 19.210938 -5.703125 19.351562 -5.648438 19.46875 -5.546875 Z M 19.46875 -5.546875 "/></g></g></g><g fill="#201e1d" fill-opacity="1"><g transform="translate(92.163923, 195.628845)"><g><path d="M 14.4375 -6.015625 C 14.550781 -5.910156 14.609375 -5.773438 14.609375 -5.609375 C 14.609375 -5.453125 14.554688 -5.3125 14.453125 -5.1875 C 14.398438 -5.144531 14.175781 -4.9375 13.78125 -4.5625 C 13.382812 -4.195312 12.863281 -3.753906 12.21875 -3.234375 C 11.570312 -2.722656 10.832031 -2.210938 10 -1.703125 C 9.164062 -1.203125 8.273438 -0.785156 7.328125 -0.453125 C 6.390625 -0.117188 5.445312 0.046875 4.5 0.046875 C 3.132812 0.0546875 1.910156 -0.34375 0.828125 -1.15625 C 0.378906 -1.488281 0.078125 -1.875 -0.078125 -2.3125 C -0.242188 -2.757812 -0.316406 -3.21875 -0.296875 -3.6875 C -0.273438 -4.164062 -0.203125 -4.613281 -0.078125 -5.03125 C 0.0351562 -5.445312 0.144531 -5.789062 0.25 -6.0625 C 0.363281 -6.332031 0.429688 -6.476562 0.453125 -6.5 C 0.535156 -6.632812 0.648438 -6.722656 0.796875 -6.765625 C 0.953125 -6.816406 1.09375 -6.804688 1.21875 -6.734375 C 1.375 -6.660156 1.476562 -6.546875 1.53125 -6.390625 C 1.582031 -6.242188 1.570312 -6.101562 1.5 -5.96875 C 1.5 -5.957031 1.453125 -5.851562 1.359375 -5.65625 C 1.265625 -5.46875 1.171875 -5.21875 1.078125 -4.90625 C 0.984375 -4.59375 0.914062 -4.257812 0.875 -3.90625 C 0.84375 -3.5625 0.867188 -3.222656 0.953125 -2.890625 C 1.046875 -2.566406 1.234375 -2.300781 1.515625 -2.09375 C 2.203125 -1.59375 2.925781 -1.289062 3.6875 -1.1875 C 4.445312 -1.082031 5.210938 -1.117188 5.984375 -1.296875 C 6.765625 -1.484375 7.523438 -1.757812 8.265625 -2.125 C 9.003906 -2.488281 9.691406 -2.890625 10.328125 -3.328125 C 10.972656 -3.765625 11.539062 -4.179688 12.03125 -4.578125 C 12.519531 -4.984375 12.898438 -5.320312 13.171875 -5.59375 C 13.453125 -5.863281 13.597656 -6.003906 13.609375 -6.015625 C 13.734375 -6.128906 13.875 -6.1875 14.03125 -6.1875 C 14.1875 -6.1875 14.320312 -6.128906 14.4375 -6.015625 Z M 0.203125 -7.78125 C -0.0976562 -7.78125 -0.285156 -7.925781 -0.359375 -8.21875 C -0.429688 -8.519531 -0.332031 -8.742188 -0.0625 -8.890625 C 0.351562 -9.097656 0.722656 -9.375 1.046875 -9.71875 C 1.160156 -9.832031 1.296875 -9.890625 1.453125 -9.890625 C 1.609375 -9.890625 1.75 -9.835938 1.875 -9.734375 C 1.988281 -9.617188 2.050781 -9.484375 2.0625 -9.328125 C 2.070312 -9.171875 2.015625 -9.03125 1.890625 -8.90625 C 1.472656 -8.476562 1.003906 -8.128906 0.484375 -7.859375 C 0.398438 -7.804688 0.304688 -7.78125 0.203125 -7.78125 Z M 0.203125 -7.78125 "/></g></g></g><g fill="#201e1d" fill-opacity="1"><g transform="translate(105.842221, 195.628845)"><g><path d="M 18.40625 -5.28125 C 18.519531 -5.175781 18.570312 -5.039062 18.5625 -4.875 C 18.5625 -4.71875 18.5 -4.578125 18.375 -4.453125 C 17.5625 -3.671875 16.625 -3.007812 15.5625 -2.46875 C 14.5 -1.9375 13.390625 -1.515625 12.234375 -1.203125 C 11.078125 -0.890625 9.945312 -0.675781 8.84375 -0.5625 C 7.75 -0.457031 6.75 -0.441406 5.84375 -0.515625 C 4.9375 -0.585938 4.207031 -0.734375 3.65625 -0.953125 C 3.125 -1.160156 2.769531 -1.410156 2.59375 -1.703125 C 2.425781 -1.992188 2.332031 -2.25 2.3125 -2.46875 C 2.3125 -2.5 2.289062 -2.507812 2.25 -2.5 C 2.21875 -2.5 2.179688 -2.472656 2.140625 -2.421875 C 1.410156 -1.722656 0.765625 -0.953125 0.203125 -0.109375 C 0.0234375 0.128906 -0.203125 0.195312 -0.484375 0.09375 C -0.765625 -0.0078125 -0.894531 -0.210938 -0.875 -0.515625 C -0.71875 -2.148438 -0.539062 -3.804688 -0.34375 -5.484375 C -0.144531 -7.160156 0.09375 -8.769531 0.375 -10.3125 C 0.65625 -11.863281 0.988281 -13.257812 1.375 -14.5 C 1.757812 -15.75 2.207031 -16.769531 2.71875 -17.5625 C 3.238281 -18.363281 3.835938 -18.84375 4.515625 -19 C 4.816406 -19.125 5.125 -19.144531 5.4375 -19.0625 C 5.757812 -18.976562 6.023438 -18.8125 6.234375 -18.5625 C 6.492188 -18.207031 6.582031 -17.6875 6.5 -17 C 6.414062 -16.3125 6.207031 -15.53125 5.875 -14.65625 C 5.550781 -13.78125 5.160156 -12.867188 4.703125 -11.921875 C 4.253906 -10.972656 3.78125 -10.039062 3.28125 -9.125 C 2.789062 -8.207031 2.320312 -7.378906 1.875 -6.640625 C 1.425781 -5.898438 1.066406 -5.304688 0.796875 -4.859375 C 0.765625 -4.828125 0.75 -4.8125 0.75 -4.8125 C 0.695312 -4.320312 0.640625 -3.816406 0.578125 -3.296875 C 0.566406 -3.148438 0.625 -3.046875 0.75 -2.984375 C 0.882812 -2.910156 1.003906 -2.929688 1.109375 -3.046875 C 2.015625 -3.941406 2.878906 -4.632812 3.703125 -5.125 C 4.535156 -5.613281 5.257812 -5.9375 5.875 -6.09375 C 6.488281 -6.257812 6.914062 -6.304688 7.15625 -6.234375 C 7.445312 -6.117188 7.59375 -5.90625 7.59375 -5.59375 C 7.582031 -5.34375 7.460938 -5.160156 7.234375 -5.046875 C 7.015625 -4.929688 6.769531 -4.847656 6.5 -4.796875 C 5.3125 -4.210938 4.515625 -3.722656 4.109375 -3.328125 C 3.703125 -2.929688 3.5 -2.660156 3.5 -2.515625 C 3.5 -2.347656 3.695312 -2.1875 4.09375 -2.03125 C 4.570312 -1.832031 5.226562 -1.703125 6.0625 -1.640625 C 6.894531 -1.585938 7.816406 -1.613281 8.828125 -1.71875 C 9.835938 -1.832031 10.875 -2.035156 11.9375 -2.328125 C 13.007812 -2.617188 14.03125 -3.007812 15 -3.5 C 15.976562 -3.988281 16.835938 -4.585938 17.578125 -5.296875 C 17.703125 -5.421875 17.84375 -5.476562 18 -5.46875 C 18.164062 -5.457031 18.300781 -5.394531 18.40625 -5.28125 Z M 4.796875 -17.875 C 4.535156 -17.8125 4.269531 -17.628906 4 -17.328125 C 3.726562 -17.035156 3.441406 -16.566406 3.140625 -15.921875 C 2.847656 -15.273438 2.554688 -14.410156 2.265625 -13.328125 C 1.972656 -12.242188 1.6875 -10.882812 1.40625 -9.25 C 1.375 -9.101562 1.429688 -9 1.578125 -8.9375 C 1.734375 -8.894531 1.847656 -8.9375 1.921875 -9.0625 C 2.804688 -10.65625 3.523438 -12.078125 4.078125 -13.328125 C 4.628906 -14.578125 5.007812 -15.59375 5.21875 -16.375 C 5.425781 -17.164062 5.453125 -17.664062 5.296875 -17.875 C 5.273438 -17.894531 5.21875 -17.90625 5.125 -17.90625 C 5.007812 -17.90625 4.898438 -17.894531 4.796875 -17.875 Z M 4.796875 -17.875 "/></g></g></g><g fill="#201e1d" fill-opacity="1"><g transform="translate(123.396781, 195.628845)"><g><path d="M 14.4375 -6.015625 C 14.550781 -5.910156 14.609375 -5.773438 14.609375 -5.609375 C 14.609375 -5.453125 14.554688 -5.3125 14.453125 -5.1875 C 14.398438 -5.144531 14.175781 -4.9375 13.78125 -4.5625 C 13.382812 -4.195312 12.863281 -3.753906 12.21875 -3.234375 C 11.570312 -2.722656 10.832031 -2.210938 10 -1.703125 C 9.164062 -1.203125 8.273438 -0.785156 7.328125 -0.453125 C 6.390625 -0.117188 5.445312 0.046875 4.5 0.046875 C 3.132812 0.0546875 1.910156 -0.34375 0.828125 -1.15625 C 0.378906 -1.488281 0.078125 -1.875 -0.078125 -2.3125 C -0.242188 -2.757812 -0.316406 -3.21875 -0.296875 -3.6875 C -0.273438 -4.164062 -0.203125 -4.613281 -0.078125 -5.03125 C 0.0351562 -5.445312 0.144531 -5.789062 0.25 -6.0625 C 0.363281 -6.332031 0.429688 -6.476562 0.453125 -6.5 C 0.535156 -6.632812 0.648438 -6.722656 0.796875 -6.765625 C 0.953125 -6.816406 1.09375 -6.804688 1.21875 -6.734375 C 1.375 -6.660156 1.476562 -6.546875 1.53125 -6.390625 C 1.582031 -6.242188 1.570312 -6.101562 1.5 -5.96875 C 1.5 -5.957031 1.453125 -5.851562 1.359375 -5.65625 C 1.265625 -5.46875 1.171875 -5.21875 1.078125 -4.90625 C 0.984375 -4.59375 0.914062 -4.257812 0.875 -3.90625 C 0.84375 -3.5625 0.867188 -3.222656 0.953125 -2.890625 C 1.046875 -2.566406 1.234375 -2.300781 1.515625 -2.09375 C 2.203125 -1.59375 2.925781 -1.289062 3.6875 -1.1875 C 4.445312 -1.082031 5.210938 -1.117188 5.984375 -1.296875 C 6.765625 -1.484375 7.523438 -1.757812 8.265625 -2.125 C 9.003906 -2.488281 9.691406 -2.890625 10.328125 -3.328125 C 10.972656 -3.765625 11.539062 -4.179688 12.03125 -4.578125 C 12.519531 -4.984375 12.898438 -5.320312 13.171875 -5.59375 C 13.453125 -5.863281 13.597656 -6.003906 13.609375 -6.015625 C 13.734375 -6.128906 13.875 -6.1875 14.03125 -6.1875 C 14.1875 -6.1875 14.320312 -6.128906 14.4375 -6.015625 Z M 0.203125 -7.78125 C -0.0976562 -7.78125 -0.285156 -7.925781 -0.359375 -8.21875 C -0.429688 -8.519531 -0.332031 -8.742188 -0.0625 -8.890625 C 0.351562 -9.097656 0.722656 -9.375 1.046875 -9.71875 C 1.160156 -9.832031 1.296875 -9.890625 1.453125 -9.890625 C 1.609375 -9.890625 1.75 -9.835938 1.875 -9.734375 C 1.988281 -9.617188 2.050781 -9.484375 2.0625 -9.328125 C 2.070312 -9.171875 2.015625 -9.03125 1.890625 -8.90625 C 1.472656 -8.476562 1.003906 -8.128906 0.484375 -7.859375 C 0.398438 -7.804688 0.304688 -7.78125 0.203125 -7.78125 Z M 0.203125 -7.78125 "/></g></g></g><g fill="#201e1d" fill-opacity="1"><g transform="translate(137.075079, 195.628845)"><g><path d="M 15.328125 -5.71875 C 15.441406 -5.601562 15.5 -5.460938 15.5 -5.296875 C 15.5 -5.140625 15.441406 -5 15.328125 -4.875 C 15.285156 -4.832031 15.066406 -4.632812 14.671875 -4.28125 C 14.273438 -3.925781 13.757812 -3.5 13.125 -3 C 12.488281 -2.507812 11.757812 -2.019531 10.9375 -1.53125 C 10.125 -1.039062 9.265625 -0.632812 8.359375 -0.3125 C 7.460938 0.0078125 6.5625 0.171875 5.65625 0.171875 C 5.101562 0.171875 4.570312 0.0976562 4.0625 -0.046875 C 3.09375 -0.328125 2.285156 -0.910156 1.640625 -1.796875 C 0.992188 -2.679688 0.519531 -3.820312 0.21875 -5.21875 C 0.1875 -5.289062 0.171875 -5.363281 0.171875 -5.4375 C 0.046875 -6.164062 -0.0390625 -6.898438 -0.09375 -7.640625 C -0.132812 -8.609375 -0.113281 -9.617188 -0.03125 -10.671875 C 0.0507812 -11.722656 0.1875 -12.757812 0.375 -13.78125 C 0.570312 -14.800781 0.820312 -15.742188 1.125 -16.609375 C 1.425781 -17.472656 1.765625 -18.203125 2.140625 -18.796875 C 2.523438 -19.398438 2.945312 -19.804688 3.40625 -20.015625 C 3.71875 -20.140625 4.046875 -20.15625 4.390625 -20.0625 C 4.734375 -19.976562 5.007812 -19.804688 5.21875 -19.546875 C 5.539062 -19.203125 5.710938 -18.707031 5.734375 -18.0625 C 5.753906 -17.414062 5.675781 -16.675781 5.5 -15.84375 C 5.320312 -15.007812 5.078125 -14.128906 4.765625 -13.203125 C 4.453125 -12.285156 4.109375 -11.378906 3.734375 -10.484375 C 3.367188 -9.597656 3.003906 -8.769531 2.640625 -8 C 2.285156 -7.226562 1.984375 -6.582031 1.734375 -6.0625 C 1.492188 -5.570312 1.453125 -5.070312 1.609375 -4.5625 C 1.828125 -3.789062 2.15625 -3.085938 2.59375 -2.453125 C 3.03125 -1.828125 3.628906 -1.394531 4.390625 -1.15625 C 5.085938 -0.945312 5.816406 -0.910156 6.578125 -1.046875 C 7.347656 -1.179688 8.109375 -1.421875 8.859375 -1.765625 C 9.609375 -2.117188 10.320312 -2.515625 11 -2.953125 C 11.675781 -3.390625 12.269531 -3.816406 12.78125 -4.234375 C 13.300781 -4.648438 13.710938 -5 14.015625 -5.28125 C 14.328125 -5.5625 14.488281 -5.707031 14.5 -5.71875 C 14.625 -5.820312 14.765625 -5.875 14.921875 -5.875 C 15.078125 -5.875 15.210938 -5.820312 15.328125 -5.71875 Z M 1.15625 -7.984375 C 1.175781 -7.878906 1.226562 -7.804688 1.3125 -7.765625 C 1.40625 -7.722656 1.476562 -7.75 1.53125 -7.84375 C 1.726562 -8.15625 1.953125 -8.613281 2.203125 -9.21875 C 2.453125 -9.832031 2.710938 -10.523438 2.984375 -11.296875 C 3.253906 -12.066406 3.5 -12.851562 3.71875 -13.65625 C 3.945312 -14.457031 4.132812 -15.210938 4.28125 -15.921875 C 4.425781 -16.640625 4.515625 -17.25 4.546875 -17.75 C 4.578125 -18.257812 4.515625 -18.585938 4.359375 -18.734375 C 4.234375 -18.890625 4.109375 -18.96875 3.984375 -18.96875 C 3.941406 -18.96875 3.898438 -18.957031 3.859375 -18.9375 C 3.628906 -18.832031 3.367188 -18.507812 3.078125 -17.96875 C 2.796875 -17.4375 2.515625 -16.765625 2.234375 -15.953125 C 1.953125 -15.140625 1.703125 -14.253906 1.484375 -13.296875 C 1.265625 -12.347656 1.117188 -11.410156 1.046875 -10.484375 C 0.972656 -9.554688 1.007812 -8.722656 1.15625 -7.984375 Z M 1.15625 -7.984375 "/></g></g></g><g fill="#201e1d" fill-opacity="1"><g transform="translate(151.755857, 195.628845)"><g/></g></g><g fill="#201e1d" fill-opacity="1"><g transform="translate(160.043038, 195.628845)"><g><path d="M 18.375 -5.8125 C 18.476562 -5.695312 18.53125 -5.566406 18.53125 -5.421875 C 18.53125 -5.253906 18.472656 -5.109375 18.359375 -4.984375 C 17.410156 -4.078125 16.328125 -3.359375 15.109375 -2.828125 C 13.898438 -2.296875 12.65625 -1.894531 11.375 -1.625 C 10.09375 -1.351562 8.851562 -1.160156 7.65625 -1.046875 C 6.457031 -0.941406 5.382812 -0.867188 4.4375 -0.828125 C 4.164062 -0.804688 3.90625 -0.785156 3.65625 -0.765625 C 3.414062 -0.753906 3.1875 -0.742188 2.96875 -0.734375 C 2.8125 -0.703125 2.660156 -0.6875 2.515625 -0.6875 C 2.347656 -0.6875 2.207031 -0.738281 2.09375 -0.84375 C 1.988281 -0.945312 1.929688 -1.082031 1.921875 -1.25 C 1.898438 -1.394531 1.941406 -1.523438 2.046875 -1.640625 C 2.148438 -1.765625 2.285156 -1.832031 2.453125 -1.84375 C 2.566406 -1.863281 2.691406 -1.878906 2.828125 -1.890625 C 3.359375 -1.960938 3.832031 -2.175781 4.25 -2.53125 C 4.664062 -2.894531 4.953125 -3.335938 5.109375 -3.859375 C 5.210938 -4.484375 4.875 -4.953125 4.09375 -5.265625 C 3.914062 -5.335938 3.710938 -5.304688 3.484375 -5.171875 C 3.265625 -5.035156 3.066406 -4.894531 2.890625 -4.75 C 1.835938 -3.632812 0.992188 -2.382812 0.359375 -1 C 0.335938 -0.96875 0.328125 -0.929688 0.328125 -0.890625 C 0.0976562 0.410156 -0.144531 1.703125 -0.40625 2.984375 C -0.664062 4.273438 -0.941406 5.453125 -1.234375 6.515625 C -1.535156 7.578125 -1.84375 8.445312 -2.15625 9.125 C -2.46875 9.8125 -2.78125 10.21875 -3.09375 10.34375 C -3.1875 10.375 -3.285156 10.390625 -3.390625 10.390625 C -3.628906 10.390625 -3.835938 10.304688 -4.015625 10.140625 C -4.222656 9.929688 -4.3125 9.539062 -4.28125 8.96875 C -4.25 8.394531 -4.128906 7.695312 -3.921875 6.875 C -3.710938 6.0625 -3.441406 5.1875 -3.109375 4.25 C -2.785156 3.320312 -2.421875 2.378906 -2.015625 1.421875 C -1.617188 0.472656 -1.222656 -0.40625 -0.828125 -1.21875 C -0.660156 -2.101562 -0.503906 -3 -0.359375 -3.90625 C -0.222656 -4.820312 -0.0859375 -5.726562 0.046875 -6.625 C 0.0546875 -6.851562 0.175781 -7.015625 0.40625 -7.109375 C 0.613281 -7.191406 0.804688 -7.160156 0.984375 -7.015625 C 1.160156 -6.867188 1.234375 -6.6875 1.203125 -6.46875 C 1.109375 -5.851562 1.007812 -5.210938 0.90625 -4.546875 C 0.894531 -4.472656 0.914062 -4.425781 0.96875 -4.40625 C 1.019531 -4.394531 1.066406 -4.421875 1.109375 -4.484375 C 2.347656 -6.140625 3.484375 -6.757812 4.515625 -6.34375 C 5.117188 -6.164062 5.582031 -5.820312 5.90625 -5.3125 C 6.226562 -4.800781 6.335938 -4.25 6.234375 -3.65625 C 6.148438 -3.175781 5.96875 -2.742188 5.6875 -2.359375 C 5.632812 -2.296875 5.625 -2.234375 5.65625 -2.171875 C 5.6875 -2.109375 5.734375 -2.078125 5.796875 -2.078125 C 6.703125 -2.128906 7.675781 -2.222656 8.71875 -2.359375 C 9.769531 -2.492188 10.828125 -2.691406 11.890625 -2.953125 C 12.953125 -3.222656 13.96875 -3.585938 14.9375 -4.046875 C 15.914062 -4.515625 16.789062 -5.113281 17.5625 -5.84375 C 17.675781 -5.957031 17.816406 -6.015625 17.984375 -6.015625 C 18.128906 -6.003906 18.257812 -5.9375 18.375 -5.8125 Z M -3.078125 8.46875 C -2.617188 7.1875 -2.253906 5.882812 -1.984375 4.5625 C -2.441406 5.84375 -2.804688 7.144531 -3.078125 8.46875 Z M -3.078125 8.46875 "/></g></g></g><g fill="#201e1d" fill-opacity="1"><g transform="translate(177.597598, 195.628845)"><g><path d="M 19.234375 -5.859375 C 19.335938 -5.742188 19.390625 -5.609375 19.390625 -5.453125 C 19.390625 -5.296875 19.328125 -5.15625 19.203125 -5.03125 C 18.429688 -4.28125 17.570312 -3.628906 16.625 -3.078125 C 15.675781 -2.535156 14.691406 -2.085938 13.671875 -1.734375 C 12.648438 -1.378906 11.660156 -1.113281 10.703125 -0.9375 C 9.742188 -0.769531 8.875 -0.6875 8.09375 -0.6875 C 7.238281 -0.644531 6.421875 -0.800781 5.640625 -1.15625 C 5.097656 -1.46875 4.734375 -1.804688 4.546875 -2.171875 C 4.367188 -2.546875 4.289062 -2.929688 4.3125 -3.328125 C 4.34375 -3.722656 4.429688 -4.09375 4.578125 -4.4375 C 4.722656 -4.789062 4.859375 -5.09375 4.984375 -5.34375 C 5.015625 -5.40625 5 -5.453125 4.9375 -5.484375 C 4.882812 -5.515625 4.785156 -5.492188 4.640625 -5.421875 C 3.816406 -4.972656 2.9375 -4.769531 2 -4.8125 C 1.582031 -4.800781 1.175781 -4.882812 0.78125 -5.0625 C 0.632812 -5.007812 0.484375 -5.023438 0.328125 -5.109375 C 0.0976562 -5.222656 -0.00390625 -5.414062 0.015625 -5.6875 C -0.203125 -5.945312 -0.359375 -6.25 -0.453125 -6.59375 C -0.628906 -7.207031 -0.613281 -7.8125 -0.40625 -8.40625 C -0.195312 -9 0.164062 -9.488281 0.6875 -9.875 C 1.3125 -10.238281 1.800781 -10.253906 2.15625 -9.921875 C 2.207031 -9.867188 2.265625 -9.785156 2.328125 -9.671875 C 2.390625 -9.566406 2.425781 -9.394531 2.4375 -9.15625 C 2.457031 -8.914062 2.410156 -8.582031 2.296875 -8.15625 C 2.191406 -7.726562 1.984375 -7.164062 1.671875 -6.46875 C 1.640625 -6.40625 1.660156 -6.304688 1.734375 -6.171875 C 1.804688 -6.035156 1.894531 -5.96875 2 -5.96875 C 2.863281 -5.96875 3.675781 -6.1875 4.4375 -6.625 C 4.6875 -6.75 4.953125 -6.851562 5.234375 -6.9375 C 5.515625 -7.03125 5.8125 -6.960938 6.125 -6.734375 C 6.4375 -6.492188 6.539062 -6.195312 6.4375 -5.84375 C 6.332031 -5.5 6.195312 -5.160156 6.03125 -4.828125 C 5.695312 -4.128906 5.519531 -3.582031 5.5 -3.1875 C 5.488281 -2.800781 5.734375 -2.457031 6.234375 -2.15625 C 6.515625 -2 6.992188 -1.898438 7.671875 -1.859375 C 8.347656 -1.828125 9.132812 -1.878906 10.03125 -2.015625 C 10.9375 -2.160156 11.882812 -2.390625 12.875 -2.703125 C 13.875 -3.023438 14.847656 -3.445312 15.796875 -3.96875 C 16.742188 -4.488281 17.601562 -5.125 18.375 -5.875 C 18.5 -5.976562 18.644531 -6.03125 18.8125 -6.03125 C 18.96875 -6.03125 19.109375 -5.972656 19.234375 -5.859375 Z M 0.640625 -7.078125 C 0.910156 -7.648438 1.117188 -8.238281 1.265625 -8.84375 C 0.722656 -8.363281 0.515625 -7.773438 0.640625 -7.078125 Z M 0.640625 -7.078125 "/></g></g></g><g fill="#201e1d" fill-opacity="1"><g transform="translate(195.865034, 195.628845)"><g><path d="M 18.625 -5.421875 C 18.726562 -5.296875 18.78125 -5.148438 18.78125 -4.984375 C 18.769531 -4.828125 18.703125 -4.695312 18.578125 -4.59375 C 18.535156 -4.539062 18.316406 -4.351562 17.921875 -4.03125 C 17.523438 -3.707031 17.003906 -3.320312 16.359375 -2.875 C 15.710938 -2.425781 14.984375 -1.988281 14.171875 -1.5625 C 13.367188 -1.144531 12.515625 -0.804688 11.609375 -0.546875 C 10.710938 -0.296875 9.816406 -0.203125 8.921875 -0.265625 C 8.023438 -0.328125 7.164062 -0.625 6.34375 -1.15625 C 5.726562 -1.5625 5.234375 -2.082031 4.859375 -2.71875 C 4.753906 -2.894531 4.585938 -2.992188 4.359375 -3.015625 C 4.160156 -3.023438 4 -2.941406 3.875 -2.765625 C 3.550781 -2.273438 3.195312 -1.8125 2.8125 -1.375 C 2.425781 -0.9375 2.03125 -0.582031 1.625 -0.3125 C 1.226562 -0.0390625 0.84375 0.0976562 0.46875 0.109375 L 0.453125 0.109375 C 0.179688 0.0976562 -0.0664062 0.015625 -0.296875 -0.140625 C -0.523438 -0.296875 -0.691406 -0.5 -0.796875 -0.75 C -1.242188 -1.863281 -1.179688 -2.953125 -0.609375 -4.015625 C -0.109375 -5.035156 0.578125 -5.90625 1.453125 -6.625 C 2.335938 -7.34375 3.335938 -7.835938 4.453125 -8.109375 C 4.679688 -8.171875 4.867188 -8.117188 5.015625 -7.953125 C 5.179688 -7.785156 5.234375 -7.59375 5.171875 -7.375 C 5.097656 -7.164062 4.945312 -7.03125 4.71875 -6.96875 C 3.78125 -6.75 2.941406 -6.335938 2.203125 -5.734375 C 1.460938 -5.128906 0.882812 -4.390625 0.46875 -3.515625 C 0.0507812 -2.804688 -0.0195312 -2.066406 0.25 -1.296875 C 0.332031 -1.140625 0.398438 -1.0625 0.453125 -1.0625 C 0.578125 -0.976562 0.773438 -1.070312 1.046875 -1.34375 C 1.316406 -1.625 1.617188 -2.015625 1.953125 -2.515625 C 2.296875 -3.023438 2.632812 -3.582031 2.96875 -4.1875 C 3.300781 -4.800781 3.601562 -5.394531 3.875 -5.96875 C 4 -6.238281 4.207031 -6.351562 4.5 -6.3125 C 4.78125 -6.257812 4.941406 -6.09375 4.984375 -5.8125 C 4.984375 -5.800781 5.015625 -5.65625 5.078125 -5.375 C 5.140625 -5.101562 5.242188 -4.765625 5.390625 -4.359375 C 5.535156 -3.960938 5.738281 -3.5625 6 -3.15625 C 6.257812 -2.75 6.59375 -2.410156 7 -2.140625 C 7.675781 -1.679688 8.410156 -1.4375 9.203125 -1.40625 C 10.003906 -1.382812 10.804688 -1.503906 11.609375 -1.765625 C 12.410156 -2.023438 13.175781 -2.351562 13.90625 -2.75 C 14.644531 -3.144531 15.300781 -3.550781 15.875 -3.96875 C 16.457031 -4.382812 16.921875 -4.734375 17.265625 -5.015625 C 17.609375 -5.296875 17.785156 -5.441406 17.796875 -5.453125 C 17.921875 -5.554688 18.0625 -5.601562 18.21875 -5.59375 C 18.382812 -5.59375 18.519531 -5.535156 18.625 -5.421875 Z M 18.625 -5.421875 "/></g></g></g><g fill="#201e1d" fill-opacity="1"><g transform="translate(213.865136, 195.628845)"><g><path d="M 15.3125 -6.171875 C 15.414062 -6.066406 15.46875 -5.929688 15.46875 -5.765625 C 15.46875 -5.609375 15.414062 -5.46875 15.3125 -5.34375 C 14.695312 -4.738281 13.96875 -4.148438 13.125 -3.578125 C 12.28125 -3.003906 11.363281 -2.488281 10.375 -2.03125 C 9.394531 -1.582031 8.398438 -1.222656 7.390625 -0.953125 C 6.378906 -0.691406 5.410156 -0.5625 4.484375 -0.5625 C 4.097656 -0.5625 3.722656 -0.582031 3.359375 -0.625 C 2.617188 -0.6875 1.9375 -0.910156 1.3125 -1.296875 C 0.6875 -1.691406 0.191406 -2.210938 -0.171875 -2.859375 C -0.253906 -2.984375 -0.273438 -3.117188 -0.234375 -3.265625 C -0.191406 -3.421875 -0.109375 -3.539062 0.015625 -3.625 C 0.148438 -3.71875 0.296875 -3.742188 0.453125 -3.703125 C 0.609375 -3.671875 0.734375 -3.585938 0.828125 -3.453125 C 1.148438 -3.023438 1.546875 -2.695312 2.015625 -2.46875 C 2.492188 -2.25 2.992188 -2.140625 3.515625 -2.140625 C 4.035156 -2.148438 4.535156 -2.289062 5.015625 -2.5625 C 5.328125 -2.738281 5.507812 -3 5.5625 -3.34375 C 5.644531 -3.695312 5.554688 -4.007812 5.296875 -4.28125 C 5.046875 -4.539062 4.765625 -4.769531 4.453125 -4.96875 C 3.828125 -5.34375 3.304688 -5.816406 2.890625 -6.390625 C 2.835938 -6.492188 2.75 -6.554688 2.625 -6.578125 C 2.507812 -6.585938 2.414062 -6.554688 2.34375 -6.484375 L 0.640625 -4.875 C 0.484375 -4.726562 0.289062 -4.6875 0.0625 -4.75 C -0.15625 -4.800781 -0.285156 -4.941406 -0.328125 -5.171875 C -0.390625 -5.390625 -0.332031 -5.582031 -0.15625 -5.75 L 3.25 -8.953125 C 3.632812 -9.410156 4.070312 -9.820312 4.5625 -10.1875 C 4.6875 -10.269531 4.828125 -10.300781 4.984375 -10.28125 C 5.140625 -10.269531 5.269531 -10.207031 5.375 -10.09375 C 5.476562 -9.976562 5.519531 -9.84375 5.5 -9.6875 C 5.488281 -9.53125 5.429688 -9.398438 5.328125 -9.296875 L 4.09375 -8.15625 C 3.90625 -7.9375 3.800781 -7.675781 3.78125 -7.375 C 3.78125 -7.101562 3.925781 -6.847656 4.21875 -6.609375 C 4.507812 -6.378906 4.8125 -6.148438 5.125 -5.921875 C 5.582031 -5.660156 5.976562 -5.320312 6.3125 -4.90625 C 6.5625 -4.539062 6.703125 -4.140625 6.734375 -3.703125 C 6.773438 -3.265625 6.691406 -2.851562 6.484375 -2.46875 C 6.421875 -2.351562 6.4375 -2.242188 6.53125 -2.140625 C 6.601562 -2.035156 6.707031 -2 6.84375 -2.03125 C 9.75 -2.726562 12.296875 -4.109375 14.484375 -6.171875 C 14.585938 -6.285156 14.722656 -6.34375 14.890625 -6.34375 C 15.046875 -6.34375 15.1875 -6.285156 15.3125 -6.171875 Z M 15.3125 -6.171875 "/></g></g></g><g fill="#201e1d" fill-opacity="1"><g transform="translate(228.256309, 195.628845)"><g><path d="M 18.625 -5.421875 C 18.726562 -5.296875 18.78125 -5.148438 18.78125 -4.984375 C 18.769531 -4.828125 18.703125 -4.695312 18.578125 -4.59375 C 18.535156 -4.539062 18.316406 -4.351562 17.921875 -4.03125 C 17.523438 -3.707031 17.003906 -3.320312 16.359375 -2.875 C 15.710938 -2.425781 14.984375 -1.988281 14.171875 -1.5625 C 13.367188 -1.144531 12.515625 -0.804688 11.609375 -0.546875 C 10.710938 -0.296875 9.816406 -0.203125 8.921875 -0.265625 C 8.023438 -0.328125 7.164062 -0.625 6.34375 -1.15625 C 5.726562 -1.5625 5.234375 -2.082031 4.859375 -2.71875 C 4.753906 -2.894531 4.585938 -2.992188 4.359375 -3.015625 C 4.160156 -3.023438 4 -2.941406 3.875 -2.765625 C 3.550781 -2.273438 3.195312 -1.8125 2.8125 -1.375 C 2.425781 -0.9375 2.03125 -0.582031 1.625 -0.3125 C 1.226562 -0.0390625 0.84375 0.0976562 0.46875 0.109375 L 0.453125 0.109375 C 0.179688 0.0976562 -0.0664062 0.015625 -0.296875 -0.140625 C -0.523438 -0.296875 -0.691406 -0.5 -0.796875 -0.75 C -1.242188 -1.863281 -1.179688 -2.953125 -0.609375 -4.015625 C -0.109375 -5.035156 0.578125 -5.90625 1.453125 -6.625 C 2.335938 -7.34375 3.335938 -7.835938 4.453125 -8.109375 C 4.679688 -8.171875 4.867188 -8.117188 5.015625 -7.953125 C 5.179688 -7.785156 5.234375 -7.59375 5.171875 -7.375 C 5.097656 -7.164062 4.945312 -7.03125 4.71875 -6.96875 C 3.78125 -6.75 2.941406 -6.335938 2.203125 -5.734375 C 1.460938 -5.128906 0.882812 -4.390625 0.46875 -3.515625 C 0.0507812 -2.804688 -0.0195312 -2.066406 0.25 -1.296875 C 0.332031 -1.140625 0.398438 -1.0625 0.453125 -1.0625 C 0.578125 -0.976562 0.773438 -1.070312 1.046875 -1.34375 C 1.316406 -1.625 1.617188 -2.015625 1.953125 -2.515625 C 2.296875 -3.023438 2.632812 -3.582031 2.96875 -4.1875 C 3.300781 -4.800781 3.601562 -5.394531 3.875 -5.96875 C 4 -6.238281 4.207031 -6.351562 4.5 -6.3125 C 4.78125 -6.257812 4.941406 -6.09375 4.984375 -5.8125 C 4.984375 -5.800781 5.015625 -5.65625 5.078125 -5.375 C 5.140625 -5.101562 5.242188 -4.765625 5.390625 -4.359375 C 5.535156 -3.960938 5.738281 -3.5625 6 -3.15625 C 6.257812 -2.75 6.59375 -2.410156 7 -2.140625 C 7.675781 -1.679688 8.410156 -1.4375 9.203125 -1.40625 C 10.003906 -1.382812 10.804688 -1.503906 11.609375 -1.765625 C 12.410156 -2.023438 13.175781 -2.351562 13.90625 -2.75 C 14.644531 -3.144531 15.300781 -3.550781 15.875 -3.96875 C 16.457031 -4.382812 16.921875 -4.734375 17.265625 -5.015625 C 17.609375 -5.296875 17.785156 -5.441406 17.796875 -5.453125 C 17.921875 -5.554688 18.0625 -5.601562 18.21875 -5.59375 C 18.382812 -5.59375 18.519531 -5.535156 18.625 -5.421875 Z M 18.625 -5.421875 "/></g></g></g><g fill="#201e1d" fill-opacity="1"><g transform="translate(246.25641, 195.628845)"><g><path d="M 19.46875 -5.546875 C 19.59375 -5.441406 19.65625 -5.304688 19.65625 -5.140625 C 19.664062 -4.984375 19.613281 -4.84375 19.5 -4.71875 C 19.46875 -4.675781 19.300781 -4.507812 19 -4.21875 C 18.707031 -3.925781 18.304688 -3.578125 17.796875 -3.171875 C 17.296875 -2.765625 16.710938 -2.359375 16.046875 -1.953125 C 15.378906 -1.546875 14.65625 -1.195312 13.875 -0.90625 C 13.101562 -0.625 12.304688 -0.460938 11.484375 -0.421875 C 10.660156 -0.378906 9.832031 -0.53125 9 -0.875 C 7.84375 -1.445312 6.945312 -2.300781 6.3125 -3.4375 C 6.21875 -3.550781 6.085938 -3.734375 5.921875 -3.984375 C 5.765625 -4.234375 5.546875 -4.351562 5.265625 -4.34375 C 5.128906 -4.34375 4.929688 -4.300781 4.671875 -4.21875 C 4.410156 -4.132812 4.070312 -3.96875 3.65625 -3.71875 C 3.25 -3.476562 2.765625 -3.097656 2.203125 -2.578125 C 1.640625 -2.066406 0.976562 -1.367188 0.21875 -0.484375 C 0.03125 -0.265625 -0.203125 -0.222656 -0.484375 -0.359375 C -0.753906 -0.492188 -0.851562 -0.707031 -0.78125 -1 L 0.328125 -5.90625 C 0.359375 -6.050781 0.441406 -6.164062 0.578125 -6.25 C 0.722656 -6.34375 0.875 -6.367188 1.03125 -6.328125 C 1.1875 -6.296875 1.304688 -6.207031 1.390625 -6.0625 C 1.472656 -5.925781 1.5 -5.785156 1.46875 -5.640625 L 0.953125 -3.4375 C 0.941406 -3.351562 0.972656 -3.289062 1.046875 -3.25 C 1.117188 -3.21875 1.1875 -3.234375 1.25 -3.296875 C 2.894531 -4.859375 4.285156 -5.601562 5.421875 -5.53125 C 5.890625 -5.5 6.289062 -5.304688 6.625 -4.953125 C 6.875 -4.679688 7.09375 -4.390625 7.28125 -4.078125 C 7.789062 -3.160156 8.503906 -2.453125 9.421875 -1.953125 C 10.140625 -1.660156 10.859375 -1.539062 11.578125 -1.59375 C 12.304688 -1.65625 13.015625 -1.820312 13.703125 -2.09375 C 14.390625 -2.363281 15.03125 -2.6875 15.625 -3.0625 C 16.21875 -3.4375 16.738281 -3.8125 17.1875 -4.1875 C 17.644531 -4.5625 18 -4.875 18.25 -5.125 C 18.5 -5.375 18.632812 -5.507812 18.65625 -5.53125 C 18.757812 -5.644531 18.890625 -5.703125 19.046875 -5.703125 C 19.210938 -5.703125 19.351562 -5.648438 19.46875 -5.546875 Z M 19.46875 -5.546875 "/></g></g></g><g fill="#201e1d" fill-opacity="1"><g transform="translate(264.813451, 195.628845)"><g><path d="M 19.46875 -5.546875 C 19.59375 -5.441406 19.65625 -5.304688 19.65625 -5.140625 C 19.664062 -4.984375 19.613281 -4.84375 19.5 -4.71875 C 19.46875 -4.675781 19.300781 -4.507812 19 -4.21875 C 18.707031 -3.925781 18.304688 -3.578125 17.796875 -3.171875 C 17.296875 -2.765625 16.710938 -2.359375 16.046875 -1.953125 C 15.378906 -1.546875 14.65625 -1.195312 13.875 -0.90625 C 13.101562 -0.625 12.304688 -0.460938 11.484375 -0.421875 C 10.660156 -0.378906 9.832031 -0.53125 9 -0.875 C 7.84375 -1.445312 6.945312 -2.300781 6.3125 -3.4375 C 6.21875 -3.550781 6.085938 -3.734375 5.921875 -3.984375 C 5.765625 -4.234375 5.546875 -4.351562 5.265625 -4.34375 C 5.128906 -4.34375 4.929688 -4.300781 4.671875 -4.21875 C 4.410156 -4.132812 4.070312 -3.96875 3.65625 -3.71875 C 3.25 -3.476562 2.765625 -3.097656 2.203125 -2.578125 C 1.640625 -2.066406 0.976562 -1.367188 0.21875 -0.484375 C 0.03125 -0.265625 -0.203125 -0.222656 -0.484375 -0.359375 C -0.753906 -0.492188 -0.851562 -0.707031 -0.78125 -1 L 0.328125 -5.90625 C 0.359375 -6.050781 0.441406 -6.164062 0.578125 -6.25 C 0.722656 -6.34375 0.875 -6.367188 1.03125 -6.328125 C 1.1875 -6.296875 1.304688 -6.207031 1.390625 -6.0625 C 1.472656 -5.925781 1.5 -5.785156 1.46875 -5.640625 L 0.953125 -3.4375 C 0.941406 -3.351562 0.972656 -3.289062 1.046875 -3.25 C 1.117188 -3.21875 1.1875 -3.234375 1.25 -3.296875 C 2.894531 -4.859375 4.285156 -5.601562 5.421875 -5.53125 C 5.890625 -5.5 6.289062 -5.304688 6.625 -4.953125 C 6.875 -4.679688 7.09375 -4.390625 7.28125 -4.078125 C 7.789062 -3.160156 8.503906 -2.453125 9.421875 -1.953125 C 10.140625 -1.660156 10.859375 -1.539062 11.578125 -1.59375 C 12.304688 -1.65625 13.015625 -1.820312 13.703125 -2.09375 C 14.390625 -2.363281 15.03125 -2.6875 15.625 -3.0625 C 16.21875 -3.4375 16.738281 -3.8125 17.1875 -4.1875 C 17.644531 -4.5625 18 -4.875 18.25 -5.125 C 18.5 -5.375 18.632812 -5.507812 18.65625 -5.53125 C 18.757812 -5.644531 18.890625 -5.703125 19.046875 -5.703125 C 19.210938 -5.703125 19.351562 -5.648438 19.46875 -5.546875 Z M 19.46875 -5.546875 "/></g></g></g><g fill="#201e1d" fill-opacity="1"><g transform="translate(283.370479, 195.628845)"><g><path d="M 18.625 -5.421875 C 18.726562 -5.296875 18.78125 -5.148438 18.78125 -4.984375 C 18.769531 -4.828125 18.703125 -4.695312 18.578125 -4.59375 C 18.535156 -4.539062 18.316406 -4.351562 17.921875 -4.03125 C 17.523438 -3.707031 17.003906 -3.320312 16.359375 -2.875 C 15.710938 -2.425781 14.984375 -1.988281 14.171875 -1.5625 C 13.367188 -1.144531 12.515625 -0.804688 11.609375 -0.546875 C 10.710938 -0.296875 9.816406 -0.203125 8.921875 -0.265625 C 8.023438 -0.328125 7.164062 -0.625 6.34375 -1.15625 C 5.726562 -1.5625 5.234375 -2.082031 4.859375 -2.71875 C 4.753906 -2.894531 4.585938 -2.992188 4.359375 -3.015625 C 4.160156 -3.023438 4 -2.941406 3.875 -2.765625 C 3.550781 -2.273438 3.195312 -1.8125 2.8125 -1.375 C 2.425781 -0.9375 2.03125 -0.582031 1.625 -0.3125 C 1.226562 -0.0390625 0.84375 0.0976562 0.46875 0.109375 L 0.453125 0.109375 C 0.179688 0.0976562 -0.0664062 0.015625 -0.296875 -0.140625 C -0.523438 -0.296875 -0.691406 -0.5 -0.796875 -0.75 C -1.242188 -1.863281 -1.179688 -2.953125 -0.609375 -4.015625 C -0.109375 -5.035156 0.578125 -5.90625 1.453125 -6.625 C 2.335938 -7.34375 3.335938 -7.835938 4.453125 -8.109375 C 4.679688 -8.171875 4.867188 -8.117188 5.015625 -7.953125 C 5.179688 -7.785156 5.234375 -7.59375 5.171875 -7.375 C 5.097656 -7.164062 4.945312 -7.03125 4.71875 -6.96875 C 3.78125 -6.75 2.941406 -6.335938 2.203125 -5.734375 C 1.460938 -5.128906 0.882812 -4.390625 0.46875 -3.515625 C 0.0507812 -2.804688 -0.0195312 -2.066406 0.25 -1.296875 C 0.332031 -1.140625 0.398438 -1.0625 0.453125 -1.0625 C 0.578125 -0.976562 0.773438 -1.070312 1.046875 -1.34375 C 1.316406 -1.625 1.617188 -2.015625 1.953125 -2.515625 C 2.296875 -3.023438 2.632812 -3.582031 2.96875 -4.1875 C 3.300781 -4.800781 3.601562 -5.394531 3.875 -5.96875 C 4 -6.238281 4.207031 -6.351562 4.5 -6.3125 C 4.78125 -6.257812 4.941406 -6.09375 4.984375 -5.8125 C 4.984375 -5.800781 5.015625 -5.65625 5.078125 -5.375 C 5.140625 -5.101562 5.242188 -4.765625 5.390625 -4.359375 C 5.535156 -3.960938 5.738281 -3.5625 6 -3.15625 C 6.257812 -2.75 6.59375 -2.410156 7 -2.140625 C 7.675781 -1.679688 8.410156 -1.4375 9.203125 -1.40625 C 10.003906 -1.382812 10.804688 -1.503906 11.609375 -1.765625 C 12.410156 -2.023438 13.175781 -2.351562 13.90625 -2.75 C 14.644531 -3.144531 15.300781 -3.550781 15.875 -3.96875 C 16.457031 -4.382812 16.921875 -4.734375 17.265625 -5.015625 C 17.609375 -5.296875 17.785156 -5.441406 17.796875 -5.453125 C 17.921875 -5.554688 18.0625 -5.601562 18.21875 -5.59375 C 18.382812 -5.59375 18.519531 -5.535156 18.625 -5.421875 Z M 18.625 -5.421875 "/></g></g></g></svg>